# xmcd
#
# Track frame offsets:
#	150
#	18637
#	36082
#	53596
#	71451
#	95693
#	120603
#	138320
#	159939
#	180801
#	204842
#
# Disc length: 2911 seconds
#
# Revision: 1
# Processed by: cddbd v1.5.1PL2 Copyright (c) Steve Scherf et al.
# Submitted via: audiograbber 1.83.01
#
DISCID=840b5d0b
DTITLE=Biber Herrmann - temporarily blue
DYEAR=1999
DGENRE=
TTITLE0=Big road blues
TTITLE1=Can´t be satisfied
TTITLE2=San Francisco Bay Blues
TTITLE3=In the summertime
TTITLE4=Buckets of rain
TTITLE5=It´s up to you
TTITLE6=Pallet on your floor
TTITLE7=Little red rooster
TTITLE8=I just wanna make love to you
TTITLE9=Jesus´on the mainline
TTITLE10=Little prayer to the moon
EXTD=
EXTT0=
EXTT1=
EXTT2=
EXTT3=
EXTT4=
EXTT5=
EXTT6=
EXTT7=
EXTT8=
EXTT9=
EXTT10=
PLAYORDER=
